<svg width="59" height="89" viewBox="0 0 59 89" fill="none" xmlns="http://www.w3.org/2000/svg">
<g clip-path="url(#clip0_254_450)">
<path d="M15.0455 88.9913C23.084 88.9913 29.6041 82.3515 29.6041 74.1655V59.3398H15.0455C7.00695 59.3398 0.486816 65.9796 0.486816 74.1655C0.486816 82.3515 7.00695 88.9913 15.0455 88.9913Z" fill="#0ACF83"/>
<path d="M0.486816 44.4956C0.486816 36.3097 7.00695 29.6699 15.0455 29.6699H29.6041V59.3395H15.0455C7.00695 59.3213 0.486816 52.6816 0.486816 44.4956Z" fill="#A259FF"/>
<path d="M0.486816 14.8257C0.486816 6.63973 7.00695 0 15.0455 0H29.6041V29.6696H15.0455C7.00695 29.6696 0.486816 23.0117 0.486816 14.8257Z" fill="#F24E1E"/>
<path d="M29.6219 0H44.1806C52.2191 0 58.7392 6.63973 58.7392 14.8257C58.7392 23.0117 52.2191 29.6514 44.1806 29.6514H29.6219V0Z" fill="#FF7262"/>
<path d="M58.7392 44.4956C58.7392 52.6816 52.2191 59.3213 44.1806 59.3213C36.1421 59.3213 29.6219 52.6816 29.6219 44.4956C29.6219 36.3097 36.1421 29.6699 44.1806 29.6699C52.2191 29.6699 58.7392 36.3097 58.7392 44.4956Z" fill="#1ABCFE"/>
</g>
<defs>
<clipPath id="clip0_254_450">
<rect width="58.2524" height="88.9906" fill="white" transform="translate(0.486816)"/>
</clipPath>
</defs>
</svg>
