<svg width="22" height="20" viewBox="0 0 22 20" fill="none" xmlns="http://www.w3.org/2000/svg">
<path d="M10.3136 0.85958C10.6134 -0.0606967 11.9153 -0.0606959 12.2152 0.859581L13.9663 6.23398C14.1004 6.64561 14.4841 6.92418 14.9171 6.92418H20.5778C21.5472 6.92418 21.9495 8.16521 21.1645 8.73398L16.5897 12.0486C16.2382 12.3033 16.0911 12.7555 16.2256 13.1682L17.9741 18.5349C18.2742 19.4557 17.2209 20.2227 16.4366 19.6544L11.8511 16.3321C11.501 16.0784 11.0277 16.0784 10.6776 16.3321L6.09209 19.6544C5.30783 20.2227 4.25454 19.4557 4.55457 18.5348L6.30314 13.1682C6.43759 12.7555 6.29051 12.3033 5.93905 12.0486L1.36418 8.73398C0.579174 8.16521 0.981505 6.92418 1.9509 6.92418H7.61166C8.04458 6.92418 8.42834 6.64561 8.56246 6.23398L10.3136 0.85958Z" fill="#E5E5E5"/>
</svg>
